<?xml version="1.0" standalone="no"?><svg xmlns="http://www.w3.org/2000/svg" viewBox="0 0 1440 320"><path fill="#f0ded2" fill-opacity="1" d="M0,96L30,122.7C60,149,120,203,180,208C240,213,300,171,360,128C420,85,480,43,540,32C600,21,660,43,720,74.7C780,107,840,149,900,144C960,139,1020,85,1080,90.7C1140,96,1200,160,1260,181.3C1320,203,1380,181,1410,170.7L1440,160L1440,320L1410,320C1380,320,1320,320,1260,320C1200,320,1140,320,1080,320C1020,320,960,320,900,320C840,320,780,320,720,320C660,320,600,320,540,320C480,320,420,320,360,320C300,320,240,320,180,320C120,320,60,320,30,320L0,320Z"></path></svg>